<?xml version="1.0" standalone="no"?>
<!DOCTYPE svg PUBLIC "-//W3C//DTD SVG 20010904//EN"
 "http://www.w3.org/TR/2001/REC-SVG-20010904/DTD/svg10.dtd">
<svg version="1.0" xmlns="http://www.w3.org/2000/svg"
 width="1318.000000pt" height="657.000000pt" viewBox="0 0 1318.000000 657.000000"
 preserveAspectRatio="xMidYMid meet">
<metadata>
Created by potrace 1.16, written by Peter Selinger 2001-2019
</metadata>
<g transform="translate(0.000000,657.000000) scale(0.100000,-0.100000)"
fill="#000000" stroke="none">
<path d="M0 3285 l0 -3285 6590 0 6590 0 0 3285 0 3285 -6590 0 -6590 0 0
-3285z m4686 2450 c18 -60 33 -112 34 -115 1 -3 18 47 38 110 32 99 41 115 60
118 13 2 29 -1 36 -7 7 -6 28 -60 47 -121 l34 -109 31 110 c18 61 36 115 42
121 5 5 23 8 40 6 l30 -3 -53 -170 -52 -170 -35 -3 -34 -3 -39 122 -39 123
-38 -122 -39 -122 -33 0 -34 0 -37 118 c-61 199 -73 231 -74 200 -1 -27 -3
-28 -51 -28 l-50 0 0 -145 0 -145 -40 0 -40 0 0 145 0 145 -50 0 c-49 0 -50 1
-50 30 l0 30 182 -2 182 -3 32 -110z m654 85 l0 -30 -75 0 -75 0 0 -45 0 -45
60 0 c57 0 60 -1 60 -25 0 -24 -3 -25 -60 -25 l-60 0 0 -45 0 -45 75 0 75 0 0
-30 0 -30 -115 0 -115 0 0 175 0 175 115 0 115 0 0 -30z m280 0 l0 -30 -80 0
-80 0 0 -45 0 -45 60 0 c57 0 60 -1 60 -25 0 -24 -3 -25 -60 -25 l-60 0 0 -45
0 -44 78 -3 c76 -3 77 -3 80 -30 l3 -28 -115 0 -116 0 0 175 0 175 115 0 115
0 0 -30z m300 0 c0 -30 -1 -30 -55 -30 l-55 0 0 -145 0 -145 -35 0 -35 0 0
145 0 145 -55 0 c-54 0 -55 0 -55 30 l0 30 145 0 145 0 0 -30z m398 10 c32
-20 33 -27 9 -57 -7 -10 -15 -9 -38 2 -62 33 -146 10 -169 -45 -18 -43 -8
-116 20 -145 26 -27 76 -41 115 -31 20 5 25 13 25 36 0 25 -4 30 -25 30 -21 0
-25 5 -25 30 l0 30 60 0 60 0 0 -75 c0 -74 0 -75 -32 -92 -50 -26 -143 -23
-194 6 -119 67 -119 240 0 312 44 27 149 26 194 -1z m312 -10 l0 -30 -75 0
-75 0 0 -45 0 -45 60 0 c57 0 60 -1 60 -25 0 -24 -3 -25 -60 -25 l-60 0 0 -45
0 -45 75 0 75 0 0 -30 0 -30 -115 0 -115 0 0 175 0 175 115 0 115 0 0 -30z
m195 -86 l90 -117 3 117 3 116 29 0 30 0 0 -175 0 -175 -28 0 c-23 0 -41 17
-117 115 l-90 115 -3 -115 -3 -115 -29 0 -30 0 0 175 0 175 28 0 c24 0 41 -17
117 -116z m455 86 l0 -30 -80 0 -80 0 0 -45 0 -45 60 0 c57 0 60 -1 60 -25 0
-24 -3 -25 -60 -25 l-60 0 0 -45 0 -44 78 -3 c76 -3 77 -3 80 -30 l3 -28 -115
0 -116 0 0 175 0 175 115 0 115 0 0 -30z m235 16 c41 -17 55 -42 55 -94 0 -33
-6 -45 -33 -69 l-33 -29 42 -58 c23 -31 45 -58 49 -59 3 -1 34 70 69 158 l64
160 38 0 39 0 66 -170 67 -170 -30 -3 c-36 -4 -55 10 -63 49 -7 29 -7 29 -79
29 l-73 0 -12 -40 -12 -40 -73 0 -74 0 -42 65 c-27 42 -49 65 -61 65 -17 0
-19 -8 -19 -65 l0 -65 -40 0 -40 0 0 175 0 175 80 0 c47 0 95 -6 115 -14z
m705 -16 c0 -30 -1 -30 -55 -30 l-55 0 0 -145 0 -145 -35 0 -35 0 0 145 0 145
-50 0 c-49 0 -50 1 -50 30 l0 30 140 0 140 0 0 -30z m280 8 c54 -37 73 -71 78
-137 5 -75 -21 -135 -75 -171 -45 -31 -139 -34 -191 -7 -67 36 -105 132 -82
210 23 84 83 127 176 127 47 0 69 -5 94 -22z m347 -11 c23 -22 28 -37 28 -74
0 -39 -4 -49 -32 -71 l-31 -26 49 -73 50 -73 -43 0 c-42 0 -44 2 -86 65 -28
44 -49 65 -62 65 -18 0 -20 -7 -20 -65 l0 -65 -35 0 -35 0 0 176 0 176 95 -4
c88 -3 97 -5 122 -31z m-1360 -970 c28 -27 28 -28 28 -166 0 -152 -4 -163 -62
-188 -50 -20 -1549 -19 -1599 2 -54 22 -67 64 -62 206 3 124 13 149 63 170 11
4 377 7 812 6 l793 -2 27 -28z m1800 0 c28 -27 28 -28 28 -166 0 -213 29 -201
-485 -201 -514 0 -485 -12 -485 200 0 124 2 140 20 160 11 12 29 26 40 31 11
4 208 7 437 6 l418 -2 27 -28z m-4355 -46 c33 -29 33 -30 36 -136 5 -132 -2
-171 -35 -201 l-26 -24 -487 0 -487 0 -26 24 c-33 30 -40 69 -35 201 3 106 3
107 36 136 l32 29 480 0 480 0 32 -29z m5963 -831 c64 -32 125 -93 156 -155
l24 -50 3 -1500 c2 -1068 -1 -1513 -8 -1545 -25 -100 -108 -189 -208 -222 -53
-17 -212 -18 -4237 -18 -2977 0 -4198 3 -4240 11 -74 14 -119 37 -168 86 -49
48 -72 93 -87 168 -8 44 -10 458 -8 1535 l3 1475 26 55 c43 89 117 152 207
176 38 10 889 12 4267 11 l4220 -2 50 -25z"/>
<path d="M8347 5779 c-27 -16 -47 -64 -47 -114 0 -64 39 -105 100 -105 23 0
50 5 62 11 23 12 48 67 48 105 0 39 -28 90 -56 103 -31 14 -83 14 -107 0z"/>
<path d="M4500 3350 c0 -112 1 -120 20 -120 16 0 19 8 22 63 3 59 4 62 31 65
l27 3 0 -65 c0 -64 1 -66 25 -66 23 0 25 4 25 43 0 68 -17 116 -45 123 -13 3
-33 1 -44 -6 -20 -10 -21 -8 -21 35 0 38 -3 45 -20 45 -19 0 -20 -7 -20 -120z"/>
<path d="M5990 3351 l0 -121 25 0 c24 0 25 2 25 66 l0 65 28 -3 c26 -3 27 -6
30 -65 3 -55 6 -63 22 -63 18 0 20 7 20 65 0 78 -23 111 -70 101 -27 -5 -29
-3 -32 32 -2 30 -7 38 -25 40 -23 3 -23 2 -23 -117z"/>
<path d="M6680 3352 l0 -119 58 -1 c65 -1 88 14 97 62 13 65 -41 126 -85 98
-17 -10 -19 -8 -22 31 -2 35 -7 43 -25 45 -23 3 -23 2 -23 -116z"/>
<path d="M8500 3350 c0 -112 1 -120 20 -120 16 0 19 8 22 63 3 59 4 62 31 65
l27 3 0 -65 c0 -59 2 -66 20 -66 18 0 20 7 20 70 0 63 -2 71 -25 86 -21 14
-31 15 -50 6 -25 -11 -25 -11 -25 33 0 38 -3 45 -20 45 -19 0 -20 -7 -20 -120z"/>
<path d="M9660 3430 c0 -38 -1 -39 -29 -34 -63 13 -107 -84 -66 -143 13 -19
24 -22 75 -20 l60 1 0 118 c0 111 -1 118 -20 118 -17 0 -20 -7 -20 -40z"/>
<path d="M2910 3345 c0 -108 1 -115 20 -115 17 0 19 8 22 78 l3 77 60 -77 c85
-112 95 -108 95 37 0 108 -1 115 -20 115 -17 0 -19 -8 -22 -75 l-3 -75 -58 75
c-37 48 -65 75 -77 75 -19 0 -20 -7 -20 -115z"/>
<path d="M7397 3420 c-6 -16 -17 -30 -24 -30 -18 0 -16 -19 2 -26 11 -4 15
-21 15 -59 0 -59 14 -78 55 -73 32 4 38 22 8 26 -20 3 -23 9 -23 53 l0 49 35
0 35 0 0 -65 c0 -63 1 -65 25 -65 25 0 25 1 25 80 l0 80 -60 0 -60 0 0 30 c0
17 -5 30 -11 30 -6 0 -16 -13 -22 -30z"/>
<path d="M3165 3375 c-34 -33 -34 -93 -2 -123 25 -24 75 -29 108 -11 30 16 12
30 -31 23 -32 -5 -40 -3 -49 14 -17 31 -15 32 44 32 52 0 55 2 55 24 0 30 -43
66 -77 66 -13 0 -35 -11 -48 -25z"/>
<path d="M3496 3377 c-32 -32 -35 -83 -5 -121 16 -21 29 -26 64 -26 40 0 73
19 58 33 -3 4 -23 4 -44 1 -31 -5 -39 -3 -48 14 -17 31 -15 32 44 32 51 0 55
2 55 23 0 35 -21 57 -62 63 -30 5 -41 2 -62 -19z"/>
<path d="M4003 3390 c-13 -5 -23 -16 -23 -25 0 -12 8 -14 41 -9 36 6 41 5 37
-12 -2 -11 -15 -21 -36 -25 -44 -9 -54 -20 -50 -55 3 -29 4 -29 71 -30 l67 -2
0 55 c0 97 -36 131 -107 103z"/>
<path d="M4713 3388 c-48 -23 -54 -112 -10 -143 26 -18 88 -20 105 -3 22 22
13 30 -24 24 -37 -8 -64 5 -64 30 0 10 15 14 56 14 l56 0 -6 28 c-13 52 -62
75 -113 50z"/>
<path d="M4985 3375 c-34 -33 -34 -93 -2 -123 25 -24 75 -29 108 -11 30 16 12
30 -31 23 -32 -5 -40 -3 -49 14 -17 31 -15 32 44 32 52 0 55 2 55 24 0 30 -43
66 -77 66 -13 0 -35 -11 -48 -25z"/>
<path d="M5517 3393 c-4 -3 -7 -42 -7 -85 0 -77 0 -78 25 -78 24 0 25 2 25 66
l0 65 28 -3 c26 -3 27 -6 30 -65 3 -55 6 -63 22 -63 18 0 20 7 20 65 0 52 -4
69 -20 85 -22 22 -42 25 -70 10 -13 -7 -21 -7 -25 0 -7 12 -19 13 -28 3z"/>
<path d="M5722 3384 c-33 -23 -45 -60 -31 -101 13 -39 34 -53 83 -53 80 0 107
118 35 155 -36 19 -59 19 -87 -1z"/>
<path d="M6451 3381 c-22 -22 -27 -51 -12 -66 6 -6 6 -28 -1 -58 -13 -61 -7
-74 37 -83 46 -8 93 11 101 42 9 35 -12 54 -57 54 -22 0 -39 5 -39 10 0 6 9
10 21 10 34 0 59 19 59 45 0 14 5 25 10 25 6 0 10 7 10 15 0 8 -8 15 -17 15
-10 0 -34 3 -54 6 -29 5 -41 2 -58 -15z"/>
<path d="M6886 3378 c-36 -33 -39 -95 -6 -128 31 -31 120 -26 120 7 0 11 -8
12 -35 7 -37 -7 -65 7 -65 32 0 10 15 14 56 14 l56 0 -6 28 c-14 59 -75 80
-120 40z"/>
<path d="M7063 3390 c-13 -5 -23 -16 -23 -25 0 -12 8 -14 41 -9 36 6 41 5 37
-12 -2 -11 -15 -21 -36 -25 -44 -9 -54 -20 -50 -55 3 -25 8 -29 36 -32 18 -2
40 2 48 9 10 8 14 8 14 0 0 -6 10 -11 21 -11 20 0 21 4 17 66 -3 55 -8 70 -27
85 -25 21 -44 23 -78 9z"/>
<path d="M8120 3316 c0 -79 2 -86 20 -86 16 0 19 8 22 63 3 59 4 62 31 65 l27
3 0 -65 c0 -65 1 -66 26 -66 l27 0 -6 66 c-6 81 -29 111 -74 99 -31 -9 -31 -9
-55 0 -16 6 -18 -1 -18 -79z"/>
<path d="M8713 3390 c-47 -19 -59 -101 -20 -138 25 -24 75 -29 108 -11 29 15
12 31 -27 23 -36 -7 -64 7 -64 32 0 10 15 14 55 14 52 0 55 2 55 24 0 27 -42
66 -69 65 -9 0 -26 -4 -38 -9z"/>
<path d="M8908 3395 c-3 -3 6 -42 20 -86 22 -66 30 -79 46 -77 13 2 25 19 37
53 l17 50 11 -28 c6 -15 14 -39 17 -53 5 -18 12 -24 27 -22 15 2 26 20 44 72
28 83 29 99 6 94 -11 -2 -23 -23 -34 -58 -10 -31 -19 -48 -22 -40 -3 8 -11 32
-17 52 -21 67 -46 59 -70 -22 l-13 -45 -17 55 c-14 50 -35 71 -52 55z"/>
<path d="M9193 3376 c-22 -19 -28 -32 -28 -66 0 -51 30 -80 80 -80 44 0 74 27
82 72 5 32 1 41 -25 68 -37 36 -71 39 -109 6z"/>
<path d="M9832 3388 c-35 -17 -20 -33 27 -30 37 3 42 1 39 -14 -2 -11 -16 -21
-35 -25 -40 -8 -63 -26 -63 -49 0 -29 23 -40 83 -38 l57 2 0 63 c0 50 -4 67
-20 83 -22 22 -53 25 -88 8z"/>
<path d="M3720 2970 c0 -112 1 -120 20 -120 16 0 19 8 22 63 3 59 4 62 31 65
l27 3 0 -65 c0 -64 1 -66 25 -66 23 0 25 4 25 43 0 68 -17 116 -45 123 -13 3
-33 1 -44 -6 -20 -10 -21 -8 -21 35 0 38 -3 45 -20 45 -19 0 -20 -7 -20 -120z"/>
<path d="M6660 2970 c0 -112 1 -120 20 -120 16 0 19 8 22 63 3 59 4 62 28 62
24 0 25 -3 28 -62 3 -55 6 -63 22 -63 18 0 20 7 20 68 0 57 -4 72 -21 87 -17
16 -25 17 -50 8 l-29 -11 0 44 c0 37 -3 44 -20 44 -19 0 -20 -7 -20 -120z"/>
<path d="M8150 2971 l0 -121 25 0 c22 0 25 4 25 35 0 44 9 44 38 0 13 -21 30
-35 42 -35 26 0 25 3 -6 49 -27 41 -25 61 10 91 22 17 20 30 -3 30 -11 0 -33
-17 -48 -37 l-28 -37 -5 70 c-5 62 -7 69 -27 72 -23 3 -23 2 -23 -117z"/>
<path d="M9880 3050 c0 -38 -1 -39 -29 -34 -63 13 -107 -84 -66 -143 13 -19
24 -22 75 -20 l60 1 0 118 c0 111 -1 118 -20 118 -17 0 -20 -7 -20 -40z"/>
<path d="M3512 3063 c2 -12 14 -19 36 -21 l32 -3 0 -95 c0 -94 0 -94 25 -94
25 0 25 0 25 94 l0 95 32 3 c22 2 34 9 36 21 3 15 -7 17 -93 17 -86 0 -96 -2
-93 -17z"/>
<path d="M2650 2933 c0 -76 2 -83 20 -83 16 0 19 8 22 63 3 56 5 62 26 65 21
3 22 0 22 -62 0 -64 1 -66 25 -66 24 0 25 2 25 66 0 62 1 65 23 62 20 -3 22
-9 25 -65 3 -55 6 -63 22 -63 18 0 20 7 20 70 0 64 -2 71 -26 87 -22 14 -31
15 -57 5 -17 -6 -35 -8 -41 -3 -6 4 -32 8 -58 8 l-48 0 0 -84z"/>
<path d="M2935 2995 c-18 -18 -25 -35 -25 -65 0 -53 26 -80 80 -80 54 0 80 27
80 80 0 51 -34 90 -80 90 -19 0 -40 -9 -55 -25z"/>
<path d="M3237 3000 c-33 -26 -43 -70 -23 -108 17 -33 34 -42 76 -42 39 0 60
9 60 27 0 12 -8 14 -36 9 -37 -8 -64 5 -64 30 0 10 15 14 55 14 49 0 55 2 55
20 0 28 -44 70 -73 70 -13 0 -36 -9 -50 -20z"/>
<path d="M3915 2995 c-31 -30 -33 -82 -4 -119 16 -21 29 -26 64 -26 40 0 73
19 58 33 -3 4 -23 4 -44 1 -31 -5 -39 -3 -48 14 -17 31 -15 32 44 32 50 0 55
2 55 23 0 28 -9 41 -37 56 -34 17 -62 13 -88 -14z"/>
<path d="M4212 3004 c-33 -23 -45 -60 -31 -101 12 -38 34 -53 78 -53 40 0 61
9 61 27 0 12 -8 14 -36 9 -37 -8 -64 5 -64 30 0 10 15 14 55 14 49 0 55 2 55
20 0 28 -44 70 -72 70 -13 0 -34 -7 -46 -16z"/>
<path d="M4752 3008 c-33 -16 -21 -33 23 -33 53 0 55 -20 4 -36 -50 -16 -69
-41 -53 -66 9 -14 26 -18 73 -19 l61 -1 0 64 c0 50 -4 67 -20 83 -22 22 -53
25 -88 8z"/>
<path d="M4965 2988 c18 -80 42 -133 62 -136 17 -3 24 6 39 50 l17 53 17 -50
c12 -36 22 -51 37 -53 18 -3 25 8 47 74 16 50 22 82 16 88 -15 15 -37 -11 -50
-62 l-12 -47 -17 55 c-22 74 -47 75 -71 5 l-18 -50 -11 28 c-6 16 -11 34 -11
41 0 16 -21 36 -38 36 -10 0 -12 -8 -7 -32z"/>
<path d="M5253 3010 c-13 -5 -23 -16 -23 -25 0 -12 8 -14 41 -9 36 6 41 5 37
-12 -2 -11 -15 -21 -36 -25 -44 -9 -54 -20 -50 -55 3 -29 4 -29 71 -30 l67 -2
0 55 c0 97 -36 131 -107 103z"/>
<path d="M5953 3010 c-48 -20 -59 -101 -20 -138 30 -29 89 -30 117 -2 25 25
27 90 3 119 -21 24 -68 35 -100 21z"/>
<path d="M6100 2935 c0 -78 2 -85 20 -85 16 0 19 8 22 63 3 56 5 62 26 65 21
3 22 0 22 -62 0 -64 1 -66 25 -66 24 0 25 2 25 66 0 62 1 65 23 62 20 -3 22
-9 25 -65 3 -55 6 -63 22 -63 18 0 20 7 20 70 0 64 -2 71 -26 87 -21 14 -31
15 -56 5 -23 -8 -35 -8 -49 1 -15 9 -23 9 -39 0 -12 -8 -21 -9 -25 -3 -3 6
-13 10 -21 10 -11 0 -14 -18 -14 -85z"/>
<path d="M6403 3010 c-46 -18 -57 -89 -22 -134 16 -21 29 -26 64 -26 40 0 73
19 58 33 -3 4 -23 4 -44 1 -31 -5 -39 -3 -48 14 -17 31 -15 32 44 32 50 0 55
2 55 23 0 28 -9 41 -37 56 -25 13 -40 13 -70 1z"/>
<path d="M6920 2936 c0 -79 2 -86 20 -86 16 0 19 8 22 63 3 59 4 62 31 65 l27
3 0 -65 c0 -65 1 -66 26 -66 l27 0 -6 66 c-6 81 -29 111 -74 99 -31 -9 -31 -9
-55 0 -16 6 -18 -1 -18 -79z"/>
<path d="M7123 3010 c-24 -10 -38 -43 -27 -62 10 -16 11 -88 2 -88 -5 0 -8
-11 -8 -23 0 -60 131 -60 146 0 9 34 -12 53 -57 53 -22 0 -39 5 -39 10 0 6 10
10 23 10 29 0 55 19 59 45 2 11 9 25 17 31 8 6 10 13 5 16 -19 11 -100 17
-121 8z"/>
<path d="M7486 2998 c-24 -22 -30 -39 -27 -85 3 -62 100 -87 140 -37 36 46 27
105 -20 129 -39 21 -64 19 -93 -7z"/>
<path d="M7727 3013 c-4 -3 -7 -42 -7 -85 0 -77 0 -78 25 -78 24 0 25 2 25 66
0 62 1 65 23 62 20 -3 22 -9 25 -65 3 -54 6 -63 22 -63 16 0 19 9 22 63 3 56
5 62 26 65 21 3 22 0 22 -62 0 -64 1 -66 25 -66 24 0 25 3 25 54 0 30 -4 66
-10 80 -12 33 -52 43 -85 22 -14 -9 -25 -12 -25 -7 0 16 -38 23 -59 12 -13 -7
-22 -8 -26 -1 -7 12 -19 13 -28 3z"/>
<path d="M8012 3008 c-33 -16 -21 -33 23 -33 53 0 55 -20 4 -36 -50 -16 -69
-41 -53 -66 9 -14 26 -18 73 -19 l61 -1 0 64 c0 50 -4 67 -20 83 -22 22 -53
25 -88 8z"/>
<path d="M8353 3010 c-47 -19 -59 -101 -20 -138 25 -24 75 -29 108 -11 29 15
12 31 -27 23 -36 -7 -64 7 -64 32 0 10 15 14 55 14 52 0 55 2 55 24 0 27 -42
66 -69 65 -9 0 -26 -4 -38 -9z"/>
<path d="M8743 2996 c-37 -32 -39 -99 -4 -127 28 -23 79 -25 108 -4 45 32 37
121 -13 144 -37 17 -60 14 -91 -13z"/>
<path d="M9147 3013 c-2 -5 7 -43 20 -86 21 -68 27 -78 46 -75 16 2 25 16 38
58 l17 55 17 -58 c14 -49 20 -58 38 -55 17 2 26 18 44 78 16 52 19 78 12 85
-15 14 -36 -17 -44 -66 -8 -48 -19 -43 -34 15 -18 74 -49 68 -71 -14 -13 -48
-22 -43 -35 20 -9 41 -36 65 -48 43z"/>
<path d="M9433 2996 c-22 -19 -28 -32 -28 -66 0 -51 30 -80 80 -80 44 0 74 27
82 72 5 32 1 41 -25 68 -37 36 -71 39 -109 6z"/>
<path d="M9993 3010 c-74 -30 -47 -160 33 -160 41 0 77 17 69 31 -4 5 -22 7
-41 3 -36 -7 -64 7 -64 32 0 10 15 14 55 14 52 0 55 2 55 24 0 27 -42 66 -69
65 -9 0 -26 -4 -38 -9z"/>
<path d="M3740 2590 c0 -112 1 -120 20 -120 16 0 19 8 22 63 3 59 4 62 31 65
l27 3 0 -65 c0 -64 1 -66 25 -66 23 0 25 4 25 43 0 68 -17 116 -45 123 -13 3
-33 1 -44 -6 -20 -10 -21 -8 -21 35 0 38 -3 45 -20 45 -19 0 -20 -7 -20 -120z"/>
<path d="M4310 2590 c0 -112 1 -120 20 -120 16 0 19 8 22 63 3 59 4 62 28 62
24 0 25 -3 28 -62 3 -55 6 -63 22 -63 18 0 20 7 20 68 0 57 -4 72 -21 87 -17
16 -25 17 -50 8 l-29 -11 0 44 c0 37 -3 44 -20 44 -19 0 -20 -7 -20 -120z"/>
<path d="M6530 2591 l0 -121 25 0 c24 0 25 2 25 66 l0 65 28 -3 c26 -3 27 -6
30 -65 3 -55 6 -63 22 -63 18 0 20 7 20 65 0 78 -23 111 -70 101 -27 -5 -29
-3 -32 32 -2 30 -7 38 -25 40 -23 3 -23 2 -23 -117z"/>
<path d="M7640 2592 l0 -118 53 -2 c58 -1 69 3 86 35 18 35 13 79 -13 110 -22
26 -27 27 -55 16 l-31 -11 0 44 c0 37 -3 44 -20 44 -19 0 -20 -7 -20 -118z"/>
<path d="M3935 2615 c-31 -30 -33 -82 -4 -119 16 -21 29 -26 64 -26 40 0 73
19 58 33 -3 4 -23 4 -44 1 -31 -5 -39 -3 -48 14 -17 31 -15 32 44 32 50 0 55
2 55 23 0 28 -9 41 -37 56 -34 17 -62 13 -88 -14z"/>
<path d="M4513 2630 c-13 -5 -23 -16 -23 -25 0 -12 8 -14 41 -9 36 6 41 5 37
-12 -2 -11 -15 -21 -36 -25 -44 -9 -54 -20 -50 -55 3 -29 4 -29 71 -30 l67 -2
0 55 c0 97 -36 131 -107 103z"/>
<path d="M4654 2627 c-2 -7 -3 -58 -2 -113 3 -85 5 -99 21 -102 13 -3 17 4 17
30 0 33 1 34 35 30 43 -5 72 17 80 62 13 67 -37 122 -90 98 -15 -7 -27 -8 -30
-2 -9 14 -25 12 -31 -3z"/>
<path d="M4863 2628 c-48 -23 -54 -112 -10 -143 26 -18 88 -20 105 -3 22 22
13 30 -24 24 -37 -8 -64 5 -64 30 0 10 15 14 56 14 l56 0 -6 28 c-13 52 -62
75 -113 50z"/>
<path d="M5098 2610 c-26 -27 -30 -36 -25 -68 8 -47 38 -72 87 -72 64 0 97 61
69 123 -24 53 -87 60 -131 17z"/>
<path d="M5468 2629 c-10 -5 -18 -17 -18 -25 0 -11 9 -13 40 -8 33 5 40 4 40
-10 0 -17 -5 -20 -52 -30 -35 -8 -53 -39 -38 -66 9 -16 20 -19 76 -18 l66 1
-4 63 c-3 43 -10 69 -22 83 -20 22 -60 27 -88 10z"/>
<path d="M5953 2628 c-48 -23 -54 -112 -10 -143 26 -18 88 -20 105 -3 22 22
13 30 -24 24 -37 -8 -64 5 -64 30 0 10 15 14 56 14 l56 0 -6 28 c-13 52 -62
75 -113 50z"/>
<path d="M6123 2628 c-48 -23 -54 -112 -10 -143 26 -18 88 -20 105 -3 22 22
13 30 -24 24 -37 -8 -64 5 -64 30 0 10 15 14 56 14 l56 0 -6 28 c-13 52 -62
75 -113 50z"/>
<path d="M6736 2618 c-36 -33 -39 -95 -6 -128 31 -31 120 -26 120 7 0 11 -8
12 -35 7 -37 -7 -65 7 -65 32 0 10 15 14 55 14 49 0 55 2 55 20 0 29 -44 70
-74 70 -14 0 -36 -10 -50 -22z"/>
<path d="M7233 2630 c-47 -19 -59 -101 -20 -138 25 -24 75 -29 108 -11 29 15
12 31 -27 23 -36 -7 -64 7 -64 32 0 10 15 14 55 14 52 0 55 2 55 24 0 27 -42
66 -69 65 -9 0 -26 -4 -38 -9z"/>
<path d="M7370 2555 c0 -78 2 -85 20 -85 16 0 19 8 22 63 3 56 5 62 26 65 21
3 22 0 22 -62 0 -64 1 -66 25 -66 24 0 25 2 25 66 0 62 1 65 23 62 20 -3 22
-9 25 -65 3 -55 6 -63 22 -63 18 0 20 7 20 69 0 61 -3 72 -22 85 -28 20 -52
20 -71 1 -13 -13 -16 -13 -27 0 -14 17 -46 20 -55 5 -4 -7 -12 -7 -25 0 -10 5
-21 10 -24 10 -3 0 -6 -38 -6 -85z"/>
<path d="M7980 2556 c0 -79 2 -86 20 -86 16 0 19 8 22 63 3 59 4 62 31 65 l27
3 0 -65 c0 -65 1 -66 26 -66 l27 0 -6 66 c-6 81 -29 111 -74 99 -31 -9 -31 -9
-55 0 -16 6 -18 -1 -18 -79z"/>
<path d="M8183 2630 c-24 -10 -38 -43 -27 -62 10 -16 11 -88 2 -88 -5 0 -8
-11 -8 -23 0 -60 131 -60 146 0 9 34 -12 53 -57 53 -22 0 -39 5 -39 10 0 6 10
10 23 10 29 0 55 19 59 45 2 11 9 25 17 31 8 6 10 13 5 16 -19 11 -100 17
-121 8z"/>
<path d="M8443 2630 c-48 -20 -59 -101 -20 -138 30 -29 89 -30 117 -2 25 25
27 90 3 119 -21 24 -68 35 -100 21z"/>
<path d="M8792 2628 c-33 -16 -21 -33 23 -33 53 0 55 -20 4 -36 -50 -16 -69
-41 -53 -66 9 -14 26 -18 73 -19 l61 -1 0 64 c0 50 -4 67 -20 83 -22 22 -53
25 -88 8z"/>
<path d="M9109 2611 c-27 -28 -31 -37 -26 -69 4 -20 16 -45 28 -54 24 -21 89
-24 107 -6 21 21 13 30 -22 24 -42 -8 -66 1 -66 25 0 16 8 19 50 19 46 0 50 2
50 23 0 33 -20 56 -57 63 -27 5 -37 1 -64 -25z"/>
<path d="M9282 2628 c-33 -16 -21 -33 24 -33 49 0 54 -26 7 -36 -40 -8 -63
-26 -63 -49 0 -29 22 -39 83 -37 l57 1 0 63 c0 50 -4 67 -20 83 -22 22 -53 25
-88 8z"/>
<path d="M5771 1973 c-5 -21 -17 -67 -26 -103 -9 -36 -18 -72 -21 -81 -3 -13
5 -16 48 -17 61 -1 83 9 103 48 36 70 5 137 -52 111 -33 -15 -33 -15 -22 21
13 45 11 58 -6 58 -8 0 -18 -16 -24 -37z"/>
<path d="M5503 1917 c-29 -45 -62 -97 -74 -114 -20 -31 -20 -33 -2 -33 10 0
27 14 36 30 16 27 23 30 68 30 47 0 50 -1 56 -30 3 -19 12 -30 23 -30 16 0 16
6 -1 113 -10 61 -18 113 -18 115 -1 1 -9 2 -18 2 -12 0 -37 -31 -70 -83z"/>
<path d="M7446 1961 c-9 -16 -23 -32 -33 -35 -14 -6 -15 -9 -4 -15 11 -7 11
-18 1 -60 -18 -78 -16 -79 99 -80 61 -1 101 3 101 9 0 6 -19 10 -42 10 l-42 0
62 63 c34 34 62 66 62 70 0 11 -118 8 -125 -3 -4 -6 12 -10 42 -10 l47 0 -64
-65 c-39 -39 -68 -61 -73 -56 -5 5 -15 7 -22 5 -21 -9 -25 10 -11 62 10 42 16
49 39 52 33 4 36 22 4 22 -20 0 -23 4 -19 30 5 38 -3 38 -22 1z"/>
<path d="M6915 1853 c4 -43 9 -80 11 -82 10 -11 35 14 60 59 23 42 29 48 35
33 4 -10 8 -35 8 -55 2 -72 30 -44 118 115 2 4 -2 7 -10 7 -9 0 -31 -28 -51
-62 l-35 -63 -1 63 c0 83 -22 85 -66 5 l-31 -56 -7 56 c-5 41 -12 57 -23 57
-12 0 -14 -12 -8 -77z"/>
<path d="M2601 1014 c-1 -49 33 -90 83 -99 17 -3 174 -5 348 -3 l317 3 30 29
c25 24 31 37 30 70 -1 32 -2 36 -8 17 -3 -13 -19 -34 -34 -45 -28 -20 -39 -21
-362 -21 -323 0 -334 1 -362 21 -15 11 -31 32 -34 45 -6 19 -7 15 -8 -17z"/>
<path d="M9061 1018 c-1 -28 6 -46 28 -70 l29 -33 712 0 712 0 29 33 c22 24
29 42 28 70 -1 31 -2 33 -8 13 -3 -13 -19 -34 -34 -45 -28 -21 -34 -21 -727
-21 -693 0 -699 0 -727 21 -15 11 -31 32 -34 45 -6 20 -7 18 -8 -13z"/>
</g>
</svg>
